{"title":"Bakha satang / Peppermint Candy (1999) BDRip x264 Ukr sub","uid":10343756,"size":2342021012,"categoryP":"video","categoryS":"movies","magnet":"?xt=urn:btih:f638eae601da9f2d28372f49b6f5a68a6564ce2b&amp;dn=Bakha+satang+%2F+Peppermint+Candy+%281999%29+BDRip+x264+Ukr+sub&amp;tr=udp%3A%2F%2Ftracker.openbittorrent.com%3A80&amp;tr=udp%3A%2F%2Fopen.demonii.com%3A1337&amp;tr=udp%3A%2F%2Ftracker.coppersurfer.tk%3A6969&amp;tr=udp%3A%2F%2Fexodus.desync.com%3A6969","seeders":2,"leechers":0,"uploader":"orysia","files":-1,"time":1402533799,"description":"\nDirector &amp; Writer: Chang-dong Lee\nStars: Kyung-gu Sol, Yeo-jin Kim, Jung Suh\n\nAn intense, emotional masterpiece of Korean New Wave, Peppermint Candy is told in reverse, taking the viewers back through 20 years of a doomed man's life, while chronicling the sentiments and changes of modern Korea. \n\nFormat                                   : MPEG-4\nFormat profile                           : Base Media\nCodec ID                                 : isom\nFile size                                : 2.18 GiB\nDuration                                 : 2h 10mn\nOverall bit rate mode                    : Variable\nOverall bit rate                         : 2 392 Kbps\nMovie name                               : Bakha satang*1999 /Sjanyk\nGenre                                    : Drama\nRecorded date                            : 1999\nComment                                  : http://cinemasterpiece(dot)wordpress(dot)com/\n\nVideo\nID                                       : 1\nFormat                                   : AVC\nFormat/Info                              : Advanced Video Codec\nFormat profile                           : &lt;a class=&quot;__cf_email__&quot; href=&quot;/cdn-cgi/l/email-protection&quot; data-cfemail=&quot;367b575f58767a051807&quot;&gt;[email&amp;#160;protected]&lt;/a&gt;&lt;script cf-hash='f9e31' type=&quot;text/javascript&quot;&gt;\n/* &lt;![CDATA[ */!function(){try{var t=&quot;currentScript&quot;in document?document.currentScript:function(){for(var t=document.getElementsByTagName(&quot;script&quot;),e=t.length;e--;)if(t[e].getAttribute(&quot;cf-hash&quot;))return t[e]}();if(t&amp;&amp;t.previousSibling){var e,r,n,i,c=t.previousSibling,a=c.getAttribute(&quot;data-cfemail&quot;);if(a){for(e=&quot;&quot;,r=parseInt(a.substr(0,2),16),n=2;a.length-n;n+=2)i=parseInt(a.substr(n,2),16)^r,e+=String.fromCharCode(i);e=document.createTextNode(e),c.parentNode.replaceChild(e,c)}}}catch(u){}}();/* ]]&gt; */&lt;/script&gt;\nFormat settings, CABAC                   : Yes\nFormat settings, ReFrames                : 5 frames\nCodec ID                                 : avc1\nCodec ID/Info                            : Advanced Video Coding\nDuration                                 : 2h 10mn\nBit rate                                 : 2 249 Kbps\nMaximum bit rate                         : 10.2 Mbps\nWidth                                    : 1 024 pixels\nHeight                                   : 576 pixels\nDisplay aspect ratio                     : 16:9\nFrame rate mode                          : Constant\nFrame rate                               : 23.976 fps\nColor space                              : YUV\nChroma subsampling                       : 4:2:0\nBit depth                                : 8 bits\nScan type                                : Progressive\nBits/(Pixel*Frame)                       : 0.159\nStream size                              : 2.05 GiB (94%)\n\nAudio\nID                                       : 2\nFormat                                   : AAC\nFormat/Info                              : Advanced Audio Codec\nFormat profile                           : LC\nCodec ID                                 : 40\nDuration                                 : 2h 10mn\nBit rate mode                            : Variable\nBit rate                                 : 144 Kbps\nMaximum bit rate                         : 192 Kbps\nChannel(s)                               : 2 channels\nChannel positions                        : Front: L R\nSampling rate                            : 48.0 KHz\nCompression mode                         : Lossy\nStream size                              : 134 MiB (6%)\nLanguage                                 : Korean\n\nSubtittles: Ukrainian, English in container\n\nEnglish subtitles can also be downloaded separately &lt;a href=&quot; http://subscene.com/subtitles/peppermint-candy-bakha-satang/english/930381&quot; rel=&quot;nofollow&quot; target=&quot;_NEW&quot;&gt; http://subscene.com/subtitles/peppermint-candy-bakha-satang/english/930381&lt;/a&gt;\n\nScreenshots: &lt;a href=&quot;\nhttp://postimg.org/image/5fv59km1x/&quot; rel=&quot;nofollow&quot; target=&quot;_NEW&quot;&gt;\nhttp://postimg.org/image/5fv59km1x/&lt;/a&gt; &lt;a href=&quot;\nhttp://postimg.org/image/6w6nrpoyt/&quot; rel=&quot;nofollow&quot; target=&quot;_NEW&quot;&gt;\nhttp://postimg.org/image/6w6nrpoyt/&lt;/a&gt; &lt;a href=&quot;\nhttp://postimg.org/image/db5oodvol/&quot; rel=&quot;nofollow&quot; target=&quot;_NEW&quot;&gt;\nhttp://postimg.org/image/db5oodvol/&lt;/a&gt; &lt;a href=&quot;\nhttp://postimg.org/image/nz9fn85np/&quot; rel=&quot;nofollow&quot; target=&quot;_NEW&quot;&gt;\nhttp://postimg.org/image/nz9fn85np/&lt;/a&gt; &lt;a href=&quot;\nhttp://postimg.org/image/l6g8375b9/&quot; rel=&quot;nofollow&quot; target=&quot;_NEW&quot;&gt;\nhttp://postimg.org/image/l6g8375b9/&lt;/a&gt; &lt;a href=&quot;\nhttp://postimg.org/image/wk2reeftx/&quot; rel=&quot;nofollow&quot; target=&quot;_NEW&quot;&gt;\nhttp://postimg.org/image/wk2reeftx/&lt;/a&gt;\n","torrent":{"xt":"urn:btih:f638eae601da9f2d28372f49b6f5a68a6564ce2b","amp;dn":"Bakha+satang+%2F+Peppermint+Candy+%281999%29+BDRip+x264+Ukr+sub","amp;tr":["udp%3A%2F%2Ftracker.openbittorrent.com%3A80","udp%3A%2F%2Fopen.demonii.com%3A1337","udp%3A%2F%2Ftracker.coppersurfer.tk%3A6969","udp%3A%2F%2Fexodus.desync.com%3A6969"],"infoHash":"f638eae601da9f2d28372f49b6f5a68a6564ce2b","infoHashBuffer":{"type":"Buffer","data":[246,56,234,230,1,218,159,45,40,55,47,73,182,245,166,138,101,100,206,43]},"announce":[],"urlList":[]}}